<?xml version="1.0" encoding="UTF-8" standalone="no"?><!DOCTYPE svg PUBLIC "-//W3C//DTD SVG 1.1//EN" "http://www.w3.org/Graphics/SVG/1.1/DTD/svg11.dtd"><svg width="100%" height="100%" viewBox="0 0 650 78" version="1.1" xmlns="http://www.w3.org/2000/svg" xmlns:xlink="http://www.w3.org/1999/xlink" xml:space="preserve" xmlns:serif="http://www.serif.com/" style="fill-rule:evenodd;clip-rule:evenodd;stroke-linejoin:round;stroke-miterlimit:2;"><g id="Calque-1" serif:id="Calque 1"><path d="M8.717,46.804c-1.721,-1.188 -3.225,-2.804 -4.517,-4.842c-1.296,-2.037 -2.317,-4.417 -3.067,-7.137c-0.754,-2.717 -1.133,-5.659 -1.133,-8.834c0,-3.166 0.379,-6.112 1.133,-8.833c0.75,-2.717 1.771,-5.096 3.067,-7.133c1.292,-2.038 2.796,-3.655 4.517,-4.842c1.721,-1.188 3.587,-1.783 5.596,-1.783l65.312,-0c1.433,-0 2.65,0.791 3.658,2.375c1.005,1.591 1.509,3.512 1.509,5.779c-0,2.266 -0.504,4.191 -1.509,5.775c-1.008,1.587 -2.225,2.379 -3.658,2.379l-65.529,-0c-1.075,-0 -2.025,0.596 -2.85,1.783c-0.825,1.188 -1.234,2.692 -1.234,4.5c0,1.7 0.409,3.175 1.234,4.417c0.825,1.25 1.775,1.871 2.85,1.871l59.504,-0c2.008,-0 3.892,0.596 5.65,1.783c1.758,1.192 3.279,2.804 4.571,4.842c1.292,2.041 2.312,4.446 3.067,7.221c0.749,2.775 1.129,5.75 1.129,8.92c-0,3.171 -0.38,6.113 -1.13,8.834c-0.754,2.716 -1.775,5.096 -3.066,7.137c-1.292,2.038 -2.813,3.625 -4.571,4.754c-1.758,1.134 -3.642,1.696 -5.65,1.696l-65.204,0c-1.438,0 -2.654,-0.787 -3.659,-2.375c-1.004,-1.587 -1.504,-3.512 -1.504,-5.779c0,-2.262 0.5,-4.187 1.505,-5.771c1.004,-1.587 2.22,-2.383 3.658,-2.383l65.633,-0c1.079,-0 2.009,-0.592 2.8,-1.779c0.788,-1.196 1.184,-2.634 1.184,-4.334c-0,-1.812 -0.396,-3.341 -1.184,-4.587c-0.791,-1.246 -1.721,-1.871 -2.8,-1.871l-59.716,0c-2.009,0 -3.875,-0.596 -5.596,-1.783" style="fill:#fff;fill-rule:nonzero;"/><path d="M170.33,59.035c1.579,-1.416 2.816,-3.141 3.716,-5.179c0.892,-2.037 1.504,-4.279 1.825,-6.712c0.321,-2.434 0.484,-4.675 0.484,-6.713c-0,-2.037 -0.163,-4.271 -0.484,-6.708c-0.321,-2.433 -0.933,-4.671 -1.825,-6.713c-0.9,-2.037 -2.137,-3.762 -3.716,-5.179c-1.58,-1.416 -3.588,-2.121 -6.025,-2.121l-43.471,0c-2.509,0 -4.538,0.705 -6.079,2.121c-1.542,1.417 -2.763,3.142 -3.659,5.179c-0.896,2.042 -1.504,4.28 -1.825,6.713c-0.325,2.437 -0.487,4.671 -0.487,6.708c-0,2.038 0.162,4.279 0.487,6.713c0.321,2.433 0.929,4.675 1.825,6.712c0.896,2.038 2.117,3.763 3.659,5.179c1.541,1.421 3.57,2.125 6.079,2.125l43.471,0c2.437,0 4.445,-0.704 6.025,-2.125m16.033,-18.604c-0,4.309 -0.45,8.638 -1.346,12.996c-0.896,4.363 -2.204,8.325 -3.925,11.896c-1.725,3.567 -3.804,6.483 -6.242,8.746c-2.441,2.266 -5.204,3.4 -8.283,3.4l-49.067,-0c-2.945,-0.225 -5.562,-1.5 -7.854,-3.821c-2.296,-2.321 -4.25,-5.238 -5.866,-8.75c-1.613,-3.513 -2.85,-7.417 -3.709,-11.721c-0.862,-4.304 -1.296,-8.554 -1.296,-12.746c0,-4.3 0.45,-8.633 1.346,-12.991c0.896,-4.359 2.209,-8.33 3.929,-11.896c1.721,-3.567 3.8,-6.479 6.242,-8.75c2.438,-2.263 5.2,-3.396 8.283,-3.396l49.063,-0c2.946,0.229 5.558,1.504 7.854,3.821c2.296,2.325 4.254,5.241 5.867,8.75c1.612,3.512 2.85,7.421 3.712,11.725c0.859,4.304 1.292,8.55 1.292,12.737" style="fill:#fff;fill-rule:nonzero;"/><path d="M269.91,33.722c-0.32,-2.433 -0.933,-4.671 -1.825,-6.708c-0.9,-2.042 -2.137,-3.767 -3.716,-5.184c-1.575,-1.412 -3.584,-2.12 -6.021,-2.12l-38.846,-0c-2.512,-0 -4.542,0.708 -6.079,2.12c-1.546,1.417 -2.763,3.142 -3.658,5.184c-0.896,2.037 -1.509,4.275 -1.83,6.708c-0.32,2.438 -0.483,4.675 -0.483,6.708l0,28.884c0,2.266 -0.504,4.191 -1.508,5.779c-1.004,1.587 -2.225,2.375 -3.654,2.375c-1.438,-0 -2.659,-0.788 -3.659,-2.375c-1.008,-1.588 -1.512,-3.513 -1.512,-5.779l-0,-28.884c-0,-4.3 0.45,-8.629 1.35,-12.991c0.891,-4.359 2.204,-8.325 3.925,-11.892c1.721,-3.571 3.8,-6.483 6.241,-8.75c2.438,-2.267 5.2,-3.4 8.284,-3.4l45.087,0c2.938,0.229 5.559,1.504 7.85,3.825c2.296,2.321 4.254,5.238 5.867,8.746c1.612,3.517 2.85,7.421 3.712,11.725c0.859,4.304 1.292,8.55 1.292,12.737l0,28.884c0,2.266 -0.504,4.191 -1.508,5.779c-1.004,1.587 -2.225,2.375 -3.659,2.375c-1.433,-0 -2.654,-0.788 -3.654,-2.375c-1.012,-1.588 -1.512,-3.513 -1.512,-5.779l-0,-28.884c-0,-2.033 -0.159,-4.27 -0.484,-6.708" style="fill:#fff;fill-rule:nonzero;"/><path d="M323.333,59.121c-0.001,-2.942 0.645,-5.438 1.937,-7.475c1.287,-2.038 2.867,-3.059 4.737,-3.059c1.863,0 3.442,1.021 4.73,3.059c1.291,2.037 1.937,4.533 1.937,7.475c0,2.946 -0.646,5.437 -1.937,7.475c-1.288,2.037 -2.867,3.058 -4.73,3.058c-1.87,0 -3.45,-1.021 -4.737,-3.058c-1.292,-2.038 -1.938,-4.529 -1.938,-7.475m-22.7,15.291c-1.079,2.038 -2.404,3.055 -3.983,3.055c-1.437,-0 -2.654,-0.788 -3.658,-2.375c-1.004,-1.588 -1.509,-3.513 -1.509,-5.78c0,-2.037 0.359,-3.679 1.075,-4.925l26.15,-55.554c1.221,-2.604 2.83,-4.725 4.842,-6.371c2.004,-1.637 4.159,-2.462 6.459,-2.462c2.145,-0 4.187,0.737 6.125,2.208c1.937,1.475 3.516,3.513 4.737,6.117l26.146,55.217c0.433,0.791 0.791,1.67 1.075,2.629c0.287,0.966 0.433,2.012 0.433,3.141c0,2.267 -0.504,4.192 -1.508,5.78c-1.004,1.587 -2.225,2.375 -3.659,2.375c-1.72,-0 -3.087,-1.071 -4.087,-3.225l-25.075,-52.834c-0.5,-0.908 -1.125,-1.896 -1.879,-2.975c-0.75,-1.075 -1.525,-1.612 -2.309,-1.612c-0.795,-0 -1.562,0.537 -2.316,1.612c-0.754,1.079 -1.342,2.067 -1.775,2.975l-25.284,53.004Z" style="fill:#fff;fill-rule:nonzero;"/><path d="M390.097,47.145c0.321,2.434 0.929,4.671 1.829,6.709c0.896,2.041 2.112,3.766 3.654,5.183c1.546,1.417 3.571,2.121 6.079,2.121l42.829,-0c2.438,-0 4.446,-0.704 6.025,-2.121c1.575,-1.417 2.817,-3.142 3.713,-5.183c0.892,-2.038 1.504,-4.275 1.829,-6.709c0.321,-2.437 0.479,-4.675 0.479,-6.712l0,-28.879c0,-2.267 0.504,-4.188 1.509,-5.779c1.008,-1.584 2.225,-2.38 3.662,-2.38c1.429,0 2.65,0.796 3.654,2.38c1.009,1.591 1.509,3.512 1.509,5.779l-0,28.879c-0,4.308 -0.455,8.637 -1.346,12.996c-0.896,4.362 -2.209,8.325 -3.925,11.891c-1.725,3.571 -3.809,6.488 -6.242,8.75c-2.442,2.267 -5.204,3.396 -8.283,3.396l-49.067,0c-2.946,-0.221 -5.562,-1.496 -7.854,-3.821c-2.3,-2.316 -4.254,-5.233 -5.867,-8.745c-1.612,-3.513 -2.85,-7.421 -3.708,-11.725c-0.863,-4.305 -1.296,-8.55 -1.296,-12.742l0,-28.879c0,-2.267 0.504,-4.188 1.508,-5.779c1.005,-1.584 2.221,-2.38 3.663,-2.38c1.429,0 2.65,0.796 3.65,2.38c1.008,1.591 1.508,3.512 1.508,5.779l0,28.879c0,2.037 0.163,4.275 0.488,6.712" style="fill:#fff;fill-rule:nonzero;"/><path d="M561.768,69.314c0,2.266 -0.504,4.191 -1.504,5.779c-1.012,1.587 -2.229,2.375 -3.662,2.375c-0.717,-0 -1.359,-0.225 -1.938,-0.679c-0.571,-0.45 -1.112,-1.017 -1.612,-1.696c-0.43,-0.679 -0.75,-1.246 -0.967,-1.7c-2.942,-5.775 -5.975,-10.304 -9.092,-13.592c-3.125,-3.283 -6.404,-5.779 -9.846,-7.475c-3.441,-1.7 -7.083,-2.746 -10.92,-3.141c-3.842,-0.4 -7.946,-0.6 -12.321,-0.6l-21.95,-0l-0,20.729c-0,2.266 -0.521,4.191 -1.563,5.779c-1.041,1.587 -2.241,2.375 -3.604,2.375c-1.433,-0 -2.654,-0.788 -3.654,-2.375c-1.008,-1.588 -1.508,-3.513 -1.508,-5.779l-0,-43.663c-0,-3.396 0.391,-6.454 1.183,-9.171c0.787,-2.72 1.792,-5.037 3.012,-6.966c1.217,-1.925 2.617,-3.425 4.196,-4.5c1.579,-1.075 3.159,-1.617 4.734,-1.617l56.166,0c2.009,0 3.913,0.596 5.704,1.783c1.788,1.192 3.367,2.805 4.734,4.846c1.362,2.038 2.437,4.417 3.229,7.134c0.783,2.716 1.183,5.662 1.183,8.833c0,2.267 -0.504,4.192 -1.504,5.775c-1.012,1.587 -2.229,2.379 -3.662,2.379c-1.434,0 -2.655,-0.792 -3.655,-2.379c-1.008,-1.583 -1.508,-3.508 -1.508,-5.775c0,-1.7 -0.379,-3.113 -1.129,-4.246c-0.758,-1.133 -1.638,-1.812 -2.638,-2.037l-56.379,-0c-0.937,-0 -1.687,0.366 -2.262,1.1c-0.575,0.741 -0.934,1.616 -1.075,2.637l-0,8.833l21.95,0c6.308,0 12.012,0.567 17.104,1.7c5.096,1.134 9.7,2.971 13.829,5.521c4.125,2.546 7.821,5.888 11.084,10.021c3.262,4.133 6.187,9.204 8.77,15.204c0.717,1.475 1.075,3.004 1.075,4.588" style="fill:#fff;fill-rule:nonzero;"/><path d="M604.375,59.121c-0,-2.942 0.646,-5.438 1.937,-7.475c1.288,-2.038 2.867,-3.059 4.734,-3.059c1.862,0 3.441,1.021 4.733,3.059c1.292,2.037 1.938,4.533 1.938,7.475c-0,2.946 -0.646,5.437 -1.938,7.475c-1.292,2.037 -2.871,3.058 -4.733,3.058c-1.867,0 -3.446,-1.021 -4.734,-3.058c-1.291,-2.038 -1.937,-4.529 -1.937,-7.475m-22.7,15.291c-1.079,2.038 -2.408,3.055 -3.983,3.055c-1.438,-0 -2.659,-0.788 -3.659,-2.375c-1.004,-1.588 -1.508,-3.513 -1.508,-5.78c-0,-2.037 0.358,-3.679 1.075,-4.925l26.15,-55.554c1.221,-2.604 2.829,-4.725 4.842,-6.371c2.004,-1.637 4.158,-2.462 6.454,-2.462c2.15,-0 4.196,0.737 6.133,2.208c1.938,1.475 3.513,3.513 4.733,6.117l26.146,55.217c0.429,0.791 0.788,1.67 1.08,2.629c0.287,0.966 0.429,2.012 0.429,3.141c-0,2.267 -0.5,4.192 -1.509,5.78c-1.004,1.587 -2.225,2.375 -3.658,2.375c-1.725,-0 -3.083,-1.071 -4.087,-3.225l-25.071,-52.834c-0.505,-0.908 -1.13,-1.896 -1.884,-2.975c-0.75,-1.075 -1.525,-1.612 -2.312,-1.612c-0.792,-0 -1.558,0.537 -2.313,1.612c-0.758,1.079 -1.341,2.067 -1.775,2.975l-25.283,53.004Z" style="fill:#fff;fill-rule:nonzero;"/></g></svg>